%TF.GenerationSoftware,KiCad,Pcbnew,8.0.0*%
%TF.CreationDate,2024-04-01T01:39:54+02:00*%
%TF.ProjectId,smartSensor,736d6172-7453-4656-9e73-6f722e6b6963,rev?*%
%TF.SameCoordinates,Original*%
%TF.FileFunction,Soldermask,Bot*%
%TF.FilePolarity,Negative*%
%FSLAX46Y46*%
G04 Gerber Fmt 4.6, Leading zero omitted, Abs format (unit mm)*
G04 Created by KiCad (PCBNEW 8.0.0) date 2024-04-01 01:39:54*
%MOMM*%
%LPD*%
G01*
G04 APERTURE LIST*
%ADD10R,3.000000X1.500000*%
%ADD11C,2.000000*%
%ADD12R,2.000000X2.000000*%
%ADD13R,1.600000X1.600000*%
%ADD14O,1.600000X1.600000*%
%ADD15C,3.200000*%
%ADD16R,3.500000X3.500000*%
%ADD17C,3.500000*%
%ADD18C,3.000000*%
%ADD19R,2.800000X2.800000*%
%ADD20O,2.800000X2.800000*%
G04 APERTURE END LIST*
D10*
%TO.C,battery_charger*%
X64010000Y-64900000D03*
X64010000Y-78900000D03*
D11*
X86410000Y-64900000D03*
X86410000Y-68280000D03*
X86410000Y-75480000D03*
X86410000Y-78890000D03*
%TD*%
%TO.C,12V_to_3.3V*%
X83100000Y-129040000D03*
X100600000Y-129040000D03*
X83100000Y-88760000D03*
X100600000Y-88760000D03*
%TD*%
%TO.C,battery_to_12V1*%
X66620000Y-120110000D03*
X73390000Y-120110000D03*
X66690000Y-89610000D03*
X73390000Y-89610000D03*
%TD*%
%TO.C,S9013*%
X107000000Y-131600000D03*
X108270000Y-129500000D03*
X109500000Y-131600000D03*
%TD*%
%TO.C,2 Ohm*%
X82310000Y-84510000D03*
X94810000Y-84510000D03*
%TD*%
D12*
%TO.C,BeFlE*%
X168400000Y-90380000D03*
D11*
X168400000Y-92920000D03*
X168400000Y-95460000D03*
X168400000Y-98000000D03*
%TD*%
D13*
%TO.C,Arduino_Sensor1*%
X139000000Y-94380000D03*
D14*
X139000000Y-96920000D03*
X139000000Y-99460000D03*
X139000000Y-102000000D03*
X139000000Y-104540000D03*
X139000000Y-107080000D03*
X139000000Y-109620000D03*
X139000000Y-112160000D03*
X139000000Y-114700000D03*
X139000000Y-117240000D03*
X139000000Y-119780000D03*
X139000000Y-122320000D03*
X139000000Y-124860000D03*
X139000000Y-127400000D03*
X139000000Y-129940000D03*
X154240000Y-129940000D03*
X154240000Y-127400000D03*
X154240000Y-124860000D03*
X154240000Y-122320000D03*
X154240000Y-119780000D03*
X154240000Y-117240000D03*
X154240000Y-114700000D03*
X154240000Y-112160000D03*
X154240000Y-109620000D03*
X154240000Y-107080000D03*
X154240000Y-104540000D03*
X154240000Y-102000000D03*
X154240000Y-99460000D03*
X154240000Y-96920000D03*
X154240000Y-94380000D03*
%TD*%
D15*
%TO.C,Battery 18650*%
X105645000Y-72000000D03*
X161255000Y-72000000D03*
D16*
X97000000Y-72000000D03*
D17*
X169000000Y-72000000D03*
%TD*%
D11*
%TO.C,1K Ohm*%
X112650000Y-120640000D03*
X127150000Y-120640000D03*
%TD*%
D18*
%TO.C,M4*%
X57000000Y-146000000D03*
%TD*%
D12*
%TO.C,motorvalve*%
X74000000Y-130920000D03*
D11*
X74000000Y-133460000D03*
X74000000Y-136000000D03*
X74000000Y-138540000D03*
%TD*%
D12*
%TO.C,K1*%
X82042500Y-141407500D03*
D11*
X84582500Y-141407500D03*
X92202500Y-141407500D03*
X92202500Y-136327500D03*
X84582500Y-136327500D03*
X82042500Y-136327500D03*
%TD*%
D18*
%TO.C,M1*%
X180000000Y-146000000D03*
%TD*%
%TO.C,M2*%
X180000000Y-59000000D03*
%TD*%
D11*
%TO.C,U1*%
X127500000Y-88000000D03*
X125000000Y-88000000D03*
X122500000Y-88000000D03*
X120000000Y-88000000D03*
X117500000Y-88000000D03*
X115000000Y-88000000D03*
X112500000Y-88000000D03*
X110000000Y-88000000D03*
X110000000Y-113500000D03*
X112500000Y-113500000D03*
X115000000Y-113500000D03*
X117500000Y-113500000D03*
X120000000Y-113500000D03*
X122500000Y-113500000D03*
X125000000Y-113500000D03*
X127500000Y-113500000D03*
%TD*%
D19*
%TO.C,M4007*%
X101300000Y-138000000D03*
D20*
X114000000Y-138000000D03*
%TD*%
D18*
%TO.C,M3*%
X57000000Y-59000000D03*
%TD*%
M02*
