M48
; DRILL file {KiCad 8.0.0} date 2024-04-01T01:40:03+0200
; FORMAT={-:-/ absolute / inch / decimal}
; #@! TF.CreationDate,2024-04-01T01:40:03+02:00
; #@! TF.GenerationSoftware,Kicad,Pcbnew,8.0.0
; #@! TF.FileFunction,Plated,1,2,PTH
FMAT,2
INCH
; #@! TA.AperFunction,Plated,PTH,ComponentDrill
T1C0.0394
; #@! TA.AperFunction,Plated,PTH,ComponentDrill
T2C0.0551
; #@! TA.AperFunction,Plated,PTH,ComponentDrill
T3C0.0787
%
G90
G05
T1
X2.5201Y-2.5551
X2.5201Y-3.1063
X2.6228Y-4.7287
X2.6256Y-3.528
X2.8894Y-3.528
X2.8894Y-4.7287
X2.9134Y-5.1543
X2.9134Y-5.2543
X2.9134Y-5.3543
X2.9134Y-5.4543
X3.23Y-5.3672
X3.23Y-5.5672
X3.2406Y-3.3272
X3.2717Y-3.4945
X3.2717Y-5.0803
X3.33Y-5.3672
X3.33Y-5.5672
X3.402Y-2.5551
X3.402Y-2.6882
X3.402Y-2.9717
X3.402Y-3.1059
X3.63Y-5.3672
X3.63Y-5.5672
X3.7327Y-3.3272
X3.9606Y-3.4945
X3.9606Y-5.0803
X4.2126Y-5.1811
X4.2626Y-5.0984
X4.311Y-5.1811
X4.3307Y-3.4646
X4.3307Y-4.4685
X4.4291Y-3.4646
X4.4291Y-4.4685
X4.435Y-4.7496
X4.5276Y-3.4646
X4.5276Y-4.4685
X4.626Y-3.4646
X4.626Y-4.4685
X4.7244Y-3.4646
X4.7244Y-4.4685
X4.8228Y-3.4646
X4.8228Y-4.4685
X4.9213Y-3.4646
X4.9213Y-4.4685
X5.0059Y-4.7496
X5.0197Y-3.4646
X5.0197Y-4.4685
X5.4724Y-3.7157
X5.4724Y-3.8157
X5.4724Y-3.9157
X5.4724Y-4.0157
X5.4724Y-4.1157
X5.4724Y-4.2157
X5.4724Y-4.3157
X5.4724Y-4.4157
X5.4724Y-4.5157
X5.4724Y-4.6157
X5.4724Y-4.7157
X5.4724Y-4.8157
X5.4724Y-4.9157
X5.4724Y-5.0157
X5.4724Y-5.1157
X6.0724Y-3.7157
X6.0724Y-3.8157
X6.0724Y-3.9157
X6.0724Y-4.0157
X6.0724Y-4.1157
X6.0724Y-4.2157
X6.0724Y-4.3157
X6.0724Y-4.4157
X6.0724Y-4.5157
X6.0724Y-4.6157
X6.0724Y-4.7157
X6.0724Y-4.8157
X6.0724Y-4.9157
X6.0724Y-5.0157
X6.0724Y-5.1157
X6.6299Y-3.5583
X6.6299Y-3.6583
X6.6299Y-3.7583
X6.6299Y-3.8583
T2
X3.9882Y-5.4331
X4.4882Y-5.4331
T3
X3.8189Y-2.8346
X6.6535Y-2.8346
M30
